# xmcd
#
# Track frame offsets: 
#        150
#        15262
#        37125
#        51075
#        66525
#        78712
#        96187
#        108375
#        117037
#        133425
#        148537
#        159562
#        169125
#
# Disc length: 2360 seconds
#
# Revision: 1
# Processed by: cddbd v1.5.1PL0 Copyright (c) Steve Scherf et al.
# Submitted via: ExactAudioCopy v0.95a5
#
DISCID=b809360d
DTITLE=Alexandru Andries - Albumul Alb
DYEAR=1996
DGENRE=Blues
TTITLE0=decembrie
TTITLE1=vine iarna...
TTITLE2=surpriza, surpriza !!!
TTITLE3=glob de-argint
TTITLE4=ninge iar...
TTITLE5=anotimp friguros
TTITLE6=de departe vin
TTITLE7=e anul nou
TTITLE8=vis cu îngeri
TTITLE9=puf de papadie
TTITLE10=a venit Mos Craciun !!!
TTITLE11=Doamne, fa pamântul alb
TTITLE12=LA MULTI ANI !
EXTD=YEAR: 1996
EXTT0=
EXTT1=
EXTT2=
EXTT3=
EXTT4=
EXTT5=
EXTT6=
EXTT7=
EXTT8=
EXTT9=
EXTT10=
EXTT11=
EXTT12=
PLAYORDER=
